<?xml version="1.0" encoding="utf-8"?>
<!-- Generator: Adobe Illustrator 16.0.0, SVG Export Plug-In . SVG Version: 6.00 Build 0)  -->
<!DOCTYPE svg PUBLIC "-//W3C//DTD SVG 1.1//EN" "http://www.w3.org/Graphics/SVG/1.1/DTD/svg11.dtd">
<svg version="1.1" id="Layer_1" xmlns="http://www.w3.org/2000/svg" xmlns:xlink="http://www.w3.org/1999/xlink" x="0px" y="0px"
	 width="140.489px" height="140.484px" viewBox="0 0 140.489 140.484" enable-background="new 0 0 140.489 140.484"
	 xml:space="preserve">
<g>
	<defs>
		<rect id="SVGID_1_" width="140.489" height="140.484"/>
	</defs>
	<clipPath id="SVGID_2_">
		<use xlink:href="#SVGID_1_"  overflow="visible"/>
	</clipPath>
	<path clip-path="url(#SVGID_2_)" fill="#018291" d="M121.111,38.754c10.702,0,19.377-8.676,19.377-19.377
		C140.488,8.675,131.813,0,121.111,0c-10.701,0-19.377,8.675-19.377,19.377C101.747,30.074,110.415,38.742,121.111,38.754
		 M121.111,4.844c8.026,0,14.533,6.507,14.533,14.533c0,8.026-6.507,14.533-14.533,14.533c-8.025,0-14.532-6.507-14.532-14.533
		C106.587,11.354,113.089,4.852,121.111,4.844"/>
	<path clip-path="url(#SVGID_2_)" fill="#018291" d="M79.936,21.799h14.533c1.338,0,2.422-1.084,2.422-2.422
		c0-1.338-1.084-2.422-2.422-2.422H79.936c-1.338,0-2.422,1.084-2.422,2.422C77.514,20.715,78.598,21.799,79.936,21.799"/>
	<path clip-path="url(#SVGID_2_)" fill="#018291" d="M84.38,6.782l11.188,4.634c1.224,0.538,2.653-0.017,3.191-1.242
		c0.539-1.224-0.017-2.654-1.24-3.192c-0.032-0.014-0.064-0.028-0.097-0.04L86.233,2.308c-1.222-0.547-2.654-0.002-3.201,1.219
		c-0.548,1.22-0.002,2.654,1.218,3.201C84.293,6.747,84.336,6.765,84.38,6.782"/>
	<path clip-path="url(#SVGID_2_)" fill="#018291" d="M76.355,40.338c0.318-0.001,0.633-0.063,0.928-0.184l20.141-8.344
		c1.246-0.486,1.862-1.89,1.377-3.137c-0.486-1.246-1.891-1.863-3.138-1.377c-0.031,0.013-0.063,0.026-0.096,0.04l-20.137,8.342
		c-1.236,0.511-1.824,1.928-1.313,3.164C74.492,39.747,75.376,40.338,76.355,40.338"/>
	<path clip-path="url(#SVGID_2_)" fill="#018291" d="M108.677,43.065l-8.339,20.152c-0.513,1.236,0.074,2.653,1.311,3.165
		c1.236,0.511,2.653-0.076,3.165-1.312l8.339-20.14c0.512-1.236-0.075-2.653-1.311-3.164c-1.237-0.512-2.653,0.075-3.165,1.311
		V43.065z"/>
	<path clip-path="url(#SVGID_2_)" fill="#018291" d="M118.689,46.021v14.533c0,1.338,1.084,2.422,2.422,2.422
		s2.422-1.084,2.422-2.422V46.021c0-1.338-1.084-2.422-2.422-2.422S118.689,44.683,118.689,46.021"/>
	<path clip-path="url(#SVGID_2_)" fill="#018291" d="M130.381,41.755c-1.234,0.512-1.82,1.928-1.31,3.163l4.633,11.191
		c0.512,1.236,1.931,1.822,3.166,1.31c1.236-0.512,1.823-1.93,1.311-3.166l-4.634-11.188
		C133.035,41.83,131.618,41.243,130.381,41.755L130.381,41.755"/>
	<path clip-path="url(#SVGID_2_)" fill="#018291" d="M70.247,72.665c0.642,0,1.258-0.256,1.712-0.711l31.488-31.486
		c0.93-0.963,0.902-2.496-0.06-3.425c-0.938-0.907-2.427-0.907-3.366,0L68.535,68.529c-0.946,0.946-0.946,2.48,0,3.426
		C68.989,72.409,69.605,72.665,70.247,72.665"/>
	<path clip-path="url(#SVGID_2_)" fill="#018291" d="M7.271,26.644h36.332c4.013,0.001,7.268-3.251,7.269-7.264
		c0.002-3.14-2.014-5.925-4.997-6.906C44.956,6.212,40.1,1.259,33.856,0.216c-0.779-0.15-1.57-0.222-2.364-0.216
		c-4.769-0.018-9.237,2.328-11.931,6.264c-1.51-0.931-3.25-1.422-5.024-1.42C9.991,4.85,6.059,8.011,5.074,12.45
		c-3.826,1.211-5.945,5.295-4.733,9.121C1.297,24.592,4.103,26.645,7.271,26.644 M7.271,16.955c1.338,0,2.422-1.084,2.422-2.422
		c0-2.676,2.169-4.844,4.844-4.844c1.494,0.004,2.901,0.706,3.803,1.896c0.82,1.057,2.342,1.249,3.399,0.429
		c0.344-0.268,0.61-0.623,0.77-1.03c1.435-3.709,5.007-6.15,8.983-6.14c0.51-0.003,1.019,0.044,1.519,0.141
		c4.691,0.759,8.146,4.796,8.17,9.548c0,1.338,1.084,2.422,2.422,2.422s2.422,1.084,2.422,2.422s-1.084,2.422-2.422,2.422H7.271
		c-1.338,0-2.422-1.084-2.422-2.422S5.934,16.955,7.271,16.955"/>
	<path clip-path="url(#SVGID_2_)" fill="#018291" d="M42.538,36.385c-6.419,0.563-11.274,6.054-11.045,12.493v4.917
		c0.004,3.731,3.027,6.754,6.757,6.758h20.395c3.73-0.004,6.754-3.027,6.758-6.758c0.052-4.407-2.734-8.349-6.906-9.771
		c-1.206-0.386-2.478-0.517-3.737-0.387C52.782,38.746,47.779,35.777,42.538,36.385 M50.722,47.006
		c0.263,1.312,1.54,2.162,2.851,1.899c0.142-0.029,0.282-0.07,0.416-0.124c0.971-0.409,2.056-0.457,3.06-0.135
		c2.156,0.782,3.57,2.856,3.509,5.149c0,1.057-0.856,1.914-1.913,1.914H38.25c-1.056,0-1.913-0.857-1.913-1.914v-4.917
		c-0.217-3.944,2.744-7.345,6.68-7.673c0.259-0.023,0.518-0.033,0.778-0.029C47.253,41.068,50.238,43.581,50.722,47.006"/>
	<path clip-path="url(#SVGID_2_)" fill="#018291" d="M138.066,135.64h-33.91v-14.342l10.546,8.923
		c0.438,0.371,0.992,0.573,1.565,0.573h14.533c1.338,0,2.422-1.085,2.421-2.423c0-0.711-0.313-1.387-0.856-1.847l-31.488-26.643
		c-0.437-0.371-0.991-0.574-1.564-0.574H84.779c-1.337,0-2.421,1.085-2.421,2.423c0,0.711,0.314,1.387,0.857,1.847l16.097,13.62
		v18.442H62.98v-14.342l10.546,8.923c0.438,0.371,0.992,0.573,1.565,0.573h14.532c1.337,0,2.421-1.085,2.421-2.423
		c-0.001-0.711-0.313-1.387-0.856-1.847L59.701,99.882c-0.438-0.371-0.992-0.574-1.565-0.574H43.604
		c-1.338,0-2.422,1.085-2.421,2.423c0,0.711,0.313,1.387,0.856,1.847l16.098,13.62v18.442H21.804v-14.342l10.546,8.923
		c0.437,0.371,0.991,0.573,1.564,0.573h14.533c1.338,0,2.422-1.085,2.421-2.423c0-0.711-0.313-1.387-0.856-1.847L18.524,99.882
		c-0.437-0.371-0.991-0.574-1.564-0.574H2.427c-1.338,0-2.422,1.085-2.421,2.423c0,0.711,0.313,1.387,0.856,1.847l16.098,13.62
		v18.442H2.427c-1.338,0-2.422,1.084-2.422,2.422s1.084,2.422,2.422,2.422h135.639c1.338,0,2.422-1.084,2.422-2.422
		S139.404,135.64,138.066,135.64 M98.427,104.152l25.764,21.799h-7.036L91.39,104.152H98.427z M57.25,104.152l25.765,21.799h-7.037
		l-25.764-21.799H57.25z M16.073,104.152l25.764,21.799h-7.036L9.038,104.152H16.073z"/>
</g>
</svg>
