<?xml version="1.0" encoding="utf-8"?>
<!-- Generator: Adobe Illustrator 16.0.0, SVG Export Plug-In . SVG Version: 6.00 Build 0)  -->
<!DOCTYPE svg PUBLIC "-//W3C//DTD SVG 1.1//EN" "http://www.w3.org/Graphics/SVG/1.1/DTD/svg11.dtd">
<svg version="1.1" id="Capa_1" xmlns="http://www.w3.org/2000/svg" xmlns:xlink="http://www.w3.org/1999/xlink" x="0px" y="0px"
	 width="512px" height="512px" viewBox="0 0 512 512" enable-background="new 0 0 512 512" xml:space="preserve">
<g>
	<path fill="#FDDC36" d="M94,144h20v20c0,8.284,6.716,15,15,15s15-6.716,15-15v-20h20c8.284,0,15-6.716,15-15s-6.716-15-15-15h-20
		V94c0-8.284-6.716-15-15-15s-15,6.716-15,15v20H94c-8.284,0-15,6.716-15,15S85.716,144,94,144z"/>
	<path fill="#FDDC36" d="M327,144h60c8.283,0,15-6.716,15-15s-6.717-15-15-15h-60c-8.284,0-15,6.716-15,15S318.716,144,327,144z"/>
	<path fill="#FDDC36" d="M392,367h-70c-8.284,0-15,6.716-15,15s6.716,15,15,15h70c8.283,0,15-6.716,15-15S400.283,367,392,367z"/>
	<path fill="#FDDC36" d="M392,317h-70c-8.284,0-15,6.716-15,15s6.716,15,15,15h70c8.283,0,15-6.716,15-15S400.283,317,392,317z"/>
	<path fill="#FDDC36" d="M164.606,321.395c-5.856-5.858-15.354-5.858-21.213,0L129,335.787l-14.395-14.395
		c-5.856-5.857-15.354-5.857-21.213,0c-5.857,5.858-5.857,15.355,0,21.213L107.787,357l-14.395,14.395
		c-5.857,5.857-5.857,15.354,0,21.213C96.322,395.536,100.161,397,104,397s7.678-1.464,10.605-4.395L129,378.213l14.394,14.395
		C146.322,395.536,150.161,397,154,397s7.678-1.464,10.605-4.395c5.858-5.857,5.858-15.354,0-21.213L150.213,357l14.394-14.395
		C170.465,336.749,170.465,327.251,164.606,321.395z"/>
	<path fill="#FDDC36" d="M486,271.169V45c0-24.813-20.188-45-45-45H45C20.187,0,0,20.187,0,45v396c0,24.813,20.187,45,45,45h226.168
		c24.59,16.416,54.11,26,85.832,26c85.468,0,155-69.533,155-155C512,325.279,502.416,295.759,486,271.169z M456,45v192.83
		C429.129,215.469,394.609,202,357,202c-37.609,0-72.129,13.469-99,35.83V30h183C449.271,30,456,36.729,456,45z M45,30h183v198H30
		V45C30,36.729,36.729,30,45,30z M30,441V258h198v13.169c-16.416,24.59-26,54.11-26,85.831c0,37.609,13.469,72.129,35.83,99H45
		C36.729,456,30,449.271,30,441z M357,482c-68.925,0-125-56.075-125-125s56.075-125,125-125s125,56.075,125,125S425.925,482,357,482
		z"/>
</g>
</svg>
