<?xml version="1.0" encoding="utf-8"?>
<!-- Generator: Adobe Illustrator 16.0.0, SVG Export Plug-In . SVG Version: 6.00 Build 0)  -->
<!DOCTYPE svg PUBLIC "-//W3C//DTD SVG 1.1//EN" "http://www.w3.org/Graphics/SVG/1.1/DTD/svg11.dtd">
<svg version="1.1" id="Layer_1" xmlns="http://www.w3.org/2000/svg" xmlns:xlink="http://www.w3.org/1999/xlink" x="0px" y="0px"
	 width="140.49px" height="140.507px" viewBox="0 0 140.49 140.507" enable-background="new 0 0 140.49 140.507"
	 xml:space="preserve">
<g>
	<g>
		<defs>
			<rect id="SVGID_1_" width="140.49" height="140.507"/>
		</defs>
		<clipPath id="SVGID_2_">
			<use xlink:href="#SVGID_1_"  overflow="visible"/>
		</clipPath>
		<path clip-path="url(#SVGID_2_)" fill="#018291" d="M6.765,24.244h20.394c3.729-0.004,6.751-3.024,6.758-6.753v-4.917
			c0.228-6.439-4.626-11.93-11.045-12.493c-5.244-0.618-10.251,2.353-12.222,7.252C9.391,7.203,8.118,7.335,6.913,7.72
			c-4.173,1.422-6.959,5.364-6.906,9.771C0.014,21.22,3.036,24.24,6.765,24.244 M8.36,12.337c0.432-0.135,0.882-0.204,1.335-0.203
			c0.59,0.003,1.174,0.121,1.719,0.346c1.243,0.494,2.652-0.113,3.146-1.356c0.054-0.136,0.096-0.276,0.124-0.42
			c0.544-3.719,3.981-6.306,7.705-5.801c3.936,0.328,6.898,3.727,6.683,7.671v4.917c-0.002,1.057-0.858,1.912-1.914,1.914H6.765
			c-1.056-0.002-1.912-0.857-1.914-1.914c-0.06-2.293,1.354-4.367,3.51-5.149V12.337z"/>
		<path clip-path="url(#SVGID_2_)" fill="#018291" d="M128.38,24.244c6.688,0,12.111-5.422,12.111-12.111
			c0-6.688-5.423-12.11-12.111-12.11c-6.689,0-12.111,5.422-12.111,12.11C116.276,18.819,121.694,24.236,128.38,24.244
			 M128.38,4.867c4.013,0,7.266,3.253,7.266,7.266c0,4.014-3.253,7.267-7.266,7.267s-7.266-3.253-7.266-7.267
			C121.114,8.12,124.367,4.867,128.38,4.867"/>
		<path clip-path="url(#SVGID_2_)" fill="#018291" d="M125.958,31.511v7.266c0,1.338,1.084,2.423,2.422,2.423
			s2.422-1.085,2.422-2.423v-7.266c0-1.338-1.084-2.422-2.422-2.422S125.958,30.173,125.958,31.511"/>
		<path clip-path="url(#SVGID_2_)" fill="#018291" d="M107.828,32.69c0.945,0.946,2.479,0.946,3.425,0l5.137-5.137
			c0.962-0.93,0.989-2.463,0.061-3.425c-0.931-0.962-2.463-0.989-3.425-0.06c-0.021,0.02-0.04,0.04-0.061,0.06l-5.137,5.137
			C106.882,30.211,106.882,31.744,107.828,32.69"/>
		<path clip-path="url(#SVGID_2_)" fill="#018291" d="M101.736,14.556h7.266c1.338,0,2.424-1.084,2.424-2.422
			s-1.086-2.422-2.424-2.422h-7.266c-1.338,0-2.422,1.084-2.422,2.422S100.398,14.556,101.736,14.556"/>
		<path clip-path="url(#SVGID_2_)" fill="#018291" d="M94.47,82.376h-9.492l6.539-8.178c0.829-1.05,0.65-2.572-0.399-3.401
			c-1.04-0.822-2.548-0.654-3.383,0.377l-9.688,12.109c-0.837,1.045-0.668,2.569,0.376,3.405c0.43,0.344,0.965,0.531,1.515,0.531
			h9.493l-6.54,8.175c-0.842,1.04-0.682,2.565,0.358,3.407c1.039,0.842,2.564,0.681,3.406-0.358
			c0.007-0.008,0.013-0.016,0.019-0.023l9.689-12.11c0.834-1.046,0.664-2.57-0.383-3.405C95.551,82.563,95.019,82.376,94.47,82.376"
			/>
		<path clip-path="url(#SVGID_2_)" fill="#018291" d="M125.085,49.033c-1.026-0.856-2.555-0.717-3.411,0.311
			c-0.36,0.434-0.559,0.98-0.561,1.544v9.689h-3.967l-13.86-11.544c-1.028-0.856-2.555-0.717-3.411,0.311
			c-0.36,0.434-0.56,0.98-0.561,1.544v9.689h-5.118L81.567,49.096c-0.989-0.9-2.521-0.828-3.422,0.161
			c-0.406,0.446-0.63,1.028-0.63,1.631v9.689H66.874l-1.47-19.46v-9.606c0-1.338-1.084-2.422-2.422-2.422H43.605
			c-1.338,0-2.422,1.084-2.422,2.422v9.604l-1.454,19.462h-6.782l-1.453-19.46v-9.606c0-1.338-1.084-2.422-2.422-2.422H9.695
			c-1.338,0-2.422,1.084-2.422,2.422v9.602l-7.267,96.795c-0.097,1.334,0.905,2.495,2.239,2.594
			c0.061,0.004,0.122,0.006,0.184,0.006h135.639c1.338,0,2.422-1.084,2.422-2.422V62.999c0-0.719-0.319-1.4-0.872-1.86
			L125.085,49.033z M46.027,33.933H60.56v4.844H46.027V33.933z M45.853,43.622h14.884l1.281,16.955H44.591L45.853,43.622z
			 M12.117,33.933H26.65v4.844H12.117V33.933z M5.04,135.662l6.903-92.041h14.884l6.9,92.041H5.04z M83.449,118.708h7.509
			l0.807,7.266h-9.122L83.449,118.708z M96.65,125.974l-0.81-7.266h9.814l2.422,7.266H96.65z M95.303,113.863l-0.537-4.844h7.658
			l1.616,4.844H95.303z M89.868,109.02l0.537,4.844h-6.416l0.538-4.844H89.868z M79.104,113.863h-8.726l1.616-4.844h7.658
			L79.104,113.863z M68.751,118.708h9.815l-0.81,7.266H66.341L68.751,118.708z M84.781,130.818h4.844v4.844h-4.844V130.818z
			 M135.646,135.662H94.47v-4.844h16.955c1.337,0,2.423-1.084,2.423-2.422c0-0.26-0.041-0.519-0.124-0.766l-7.267-21.8
			c-0.33-0.989-1.256-1.656-2.299-1.656h-33.91c-1.043,0-1.969,0.667-2.298,1.656l-7.267,21.8c-0.422,1.269,0.264,2.641,1.533,3.063
			c0.247,0.082,0.506,0.124,0.766,0.124h16.955v4.844H38.586L33.33,65.42h46.607c1.338,0,2.422-1.084,2.422-2.422V56.37l9.27,8.426
			c0.446,0.404,1.027,0.627,1.63,0.625h8.478c1.338,0,2.422-1.084,2.422-2.422v-6.935l10.561,8.8
			c0.437,0.361,0.984,0.558,1.551,0.557h7.266c1.338,0,2.422-1.084,2.422-2.422v-6.935l9.689,8.073V135.662z"/>
	</g>
</g>
</svg>
