<svg xmlns="http://www.w3.org/2000/svg" viewBox="0 0 588.84 564.68"><defs><style>.cls-1{fill:#008291;}.cls-2{fill:#fddc49;}</style></defs><g id="Camada_2" data-name="Camada 2"><g id="Camada_1-2" data-name="Camada 1"><path class="cls-1" d="M153,507.89h68.61a8.15,8.15,0,0,0,8.15-8.15V436.9a8.15,8.15,0,0,0-8.15-8.15H153a8.15,8.15,0,0,0-8.15,8.15v62.84A8.15,8.15,0,0,0,153,507.89Zm8.14-31.42h18v15.12h-18Zm34.31,15.12V476.47h18v15.12Zm18-31.42h-18V445.05h18Zm-34.31-15.12v15.12h-18V445.05Z"/><path class="cls-1" d="M187.56,374.14H306.44a8.15,8.15,0,0,0,8.15-8.15V263.26a8.15,8.15,0,0,0-8.15-8.15H187.56a8.15,8.15,0,0,0-8.15,8.15V366A8.15,8.15,0,0,0,187.56,374.14Zm70.32-70.39v21.76H236.12V303.75Zm-21.76-16.3v-16h21.76v16Zm62.17,38.06H274.17V303.75h24.12Zm-40.41,16.3v16H236.12v-16Zm-38.06-16.3H195.7V303.75h24.12Zm-24.12,16.3h24.12v16H195.7Zm78.47,16v-16h24.12v16Zm24.12-70.39H274.17v-16h24.12Zm-78.47-16v16H195.7v-16Z"/><rect class="cls-1" x="306" y="485.23" width="16.3" height="27.51"/><path class="cls-1" d="M580.7,548.39h-69V176.12c3.86-2.16,7.62-4.3,11.23-6.39h51.85a8.15,8.15,0,0,0,8.15-8.15V99.47a8.15,8.15,0,0,0-16.3,0V119H511.73V95.52a8.15,8.15,0,0,0-8.15-8.15H478a8.15,8.15,0,0,0-8.15,8.15V119H414.89V99.45a8.15,8.15,0,0,0-16.3,0v24.37c-14.3,14.26-91.66,89.51-143,100.8H137a8.15,8.15,0,0,0-7.53,5L62.06,393.42a8.14,8.14,0,0,0,7.53,11.25H96.35V548.39H59.18a8.15,8.15,0,1,0,0,16.29H580.7a8.15,8.15,0,0,0,0-16.29Zm-251-2.24H275.85V455.39h53.87ZM424.4,404.67h.16a8.15,8.15,0,0,0,6.8-12.64l-64.58-156.9c30.93-6.67,65.39-19.16,103-37.31V548.39H397.57V404.67ZM566.66,135.32v18.11H511.73V135.32Zm-80.54-31.66h9.31V546.19h-9.31V103.66Zm-16.3,49.77H414.89V135.32h54.93Zm-71.23-6.83v15a8.15,8.15,0,0,0,8.15,8.15h63.08v10c-60.38,29.92-114,45.36-155,44.89H298C337.08,202.89,377.78,166.44,398.59,146.6ZM142.45,240.92H312.79c.06,0,.11,0,.16,0,1.37,0,2.74,0,4.13,0,.61,0,1.27-.08,1.89-.09h32.57l60.69,147.45H81.76ZM381.28,404.67V546.15H346V447.24a8.15,8.15,0,0,0-8.15-8.15H267.71a8.15,8.15,0,0,0-8.15,8.15v98.91H112.65V404.67Z"/><path class="cls-2" d="M132.7,88.47A44.24,44.24,0,1,0,88.47,132.7,44.24,44.24,0,0,0,132.7,88.47ZM88.47,118A29.49,29.49,0,1,1,118,88.47,29.49,29.49,0,0,1,88.47,118Z"/><path class="cls-2" d="M81.1,147.45v22.12a7.37,7.37,0,0,0,14.74,0V147.45a7.37,7.37,0,0,0-14.74,0Z"/><path class="cls-2" d="M0,88.47a7.37,7.37,0,0,0,7.37,7.37H29.49a7.37,7.37,0,0,0,0-14.74H7.37A7.37,7.37,0,0,0,0,88.47Z"/><path class="cls-2" d="M169.57,81.1H147.45a7.37,7.37,0,1,0,0,14.74h22.12a7.37,7.37,0,0,0,0-14.74Z"/><path class="cls-2" d="M95.84,29.49V7.37a7.37,7.37,0,0,0-14.74,0V29.49a7.37,7.37,0,0,0,14.74,0Z"/><path class="cls-2" d="M140.59,151.06a7.4,7.4,0,0,0,10.51-10.42l0,0-15.7-15.26a7.37,7.37,0,0,0-10,10Z"/><path class="cls-2" d="M31.11,153.2a7.41,7.41,0,0,0,5.24-2.14L52,135.36a7.38,7.38,0,0,0-10.4-10L25.88,141a7.38,7.38,0,0,0-.05,10.43l.05,0A7.35,7.35,0,0,0,31.11,153.2Z"/><path class="cls-2" d="M125.33,52a7.41,7.41,0,0,0,10.4,0l15.7-15.63A7.4,7.4,0,0,0,141,25.88h0l-15.63,15.7A7.38,7.38,0,0,0,125.33,52Z"/><path class="cls-2" d="M46.74,54.11A7.33,7.33,0,0,0,52,41.58L36.35,25.88A7.4,7.4,0,0,0,25.88,36.35L41.58,52A7.34,7.34,0,0,0,46.74,54.11Z"/></g></g></svg>