<svg xmlns="http://www.w3.org/2000/svg" viewBox="0 0 545.06 484.5"><defs><style>.cls-1{fill:#fddc49;}.cls-2{fill:#008291;}</style></defs><g id="Camada_2" data-name="Camada 2"><g id="Camada_1-2" data-name="Camada 1"><path class="cls-1" d="M493.15,103.82a51.91,51.91,0,1,0-51.91,51.91A51.91,51.91,0,0,0,493.15,103.82Zm-51.91,34.61a34.61,34.61,0,1,1,34.61-34.61A34.62,34.62,0,0,1,441.24,138.43Z"/><path class="cls-1" d="M432.59,173v26a8.65,8.65,0,1,0,17.3,0V173a8.65,8.65,0,1,0-17.3,0Z"/><path class="cls-1" d="M337.42,103.82a8.65,8.65,0,0,0,8.65,8.65h26a8.65,8.65,0,1,0,0-17.3h-26A8.65,8.65,0,0,0,337.42,103.82Z"/><path class="cls-1" d="M536.41,95.17H510.46a8.65,8.65,0,1,0,0,17.3h25.95a8.65,8.65,0,0,0,0-17.3Z"/><path class="cls-1" d="M449.89,34.61v-26a8.65,8.65,0,1,0-17.3,0v26a8.65,8.65,0,1,0,17.3,0Z"/><path class="cls-1" d="M502.41,177.28A8.69,8.69,0,0,0,514.74,165l0,0-18.42-17.91a8.66,8.66,0,0,0-11.77,11.77Z"/><path class="cls-1" d="M373.93,179.78a8.64,8.64,0,0,0,6.14-2.5l18.34-18.43a8.65,8.65,0,0,0-12.19-11.77l-18.43,18.34a8.65,8.65,0,0,0-.05,12.24l.05.05A8.65,8.65,0,0,0,373.93,179.78Z"/><path class="cls-1" d="M484.5,61a8.69,8.69,0,0,0,12.2,0l18.43-18.35a8.69,8.69,0,1,0-12.29-12.28h0L484.5,48.8A8.66,8.66,0,0,0,484.5,61Z"/><path class="cls-1" d="M392.27,63.5a8.6,8.6,0,0,0,6.14-14.7L380.07,30.37a8.68,8.68,0,0,0-12.28,12.28L386.22,61A8.66,8.66,0,0,0,392.27,63.5Z"/><path class="cls-2" d="M346.07,441.24h26a8.59,8.59,0,0,0,8.39-10.73L328.51,222.87a8.67,8.67,0,0,0-8.39-6.58H250.9A8.59,8.59,0,0,0,242.51,227l51.91,207.65a8.64,8.64,0,0,0,8.39,6.57h26v26H242.25v-26h26a8.59,8.59,0,0,0,8.39-10.73L224.69,222.87a8.67,8.67,0,0,0-8.4-6.58H147.08A8.59,8.59,0,0,0,138.69,227L190.6,434.67a8.64,8.64,0,0,0,8.39,6.57h26v26H138.43v-26h25.95a8.59,8.59,0,0,0,8.4-10.73L120.87,222.87a8.67,8.67,0,0,0-8.4-6.58H43.26A8.58,8.58,0,0,0,34.87,227L86.78,434.67a8.63,8.63,0,0,0,8.39,6.57h26v26H0v17.3H519.11V467.2h-173Zm-2-17.3-8.65-34.61H352.3L361,423.94ZM335,320.12H318.21l-8.65-34.61h16.79Zm-34.61,0H283.61L275,285.51h16.79Zm-12.46,17.3h16.79L313.37,372H296.58Zm34.61,0h16.78L348,372H331.19ZM322,268.21H305.23l-8.65-34.61h16.79ZM278.76,233.6l8.65,34.61H270.63L262,233.6Zm22.15,155.73h16.7l8.65,34.61h-16.7Zm-60.56,34.61-8.66-34.61h16.88l8.65,34.61Zm-9.17-103.82H214.39l-8.65-34.61h16.78Zm-34.61,0H179.78l-8.65-34.61h16.79Zm-12.46,17.3h16.78L209.55,372H192.76Zm34.61,0H235.5L244.15,372H227.37Zm-.52-69.21H201.41l-8.65-34.61h16.79ZM174.94,233.6l8.65,34.61H166.81l-8.66-34.61Zm22.15,155.73h16.7l8.65,34.61h-16.7Zm-60.56,34.61-8.66-34.61h16.87l8.66,34.61Zm-9.18-103.82H110.57l-8.65-34.61H118.7Zm-34.6,0H76l-8.65-34.61H84.1Zm-12.46,17.3H97.07L105.72,372H88.94Zm34.61,0h16.78L140.33,372H123.55Zm-.52-69.21H97.59L88.94,233.6h16.78ZM71.12,233.6l8.65,34.61H63L54.33,233.6ZM93.27,389.33H110l8.66,34.61h-16.7Z"/></g></g></svg>