<?xml version="1.0" encoding="utf-8"?>
<!-- Generator: Adobe Illustrator 16.0.0, SVG Export Plug-In . SVG Version: 6.00 Build 0)  -->
<!DOCTYPE svg PUBLIC "-//W3C//DTD SVG 1.1//EN" "http://www.w3.org/Graphics/SVG/1.1/DTD/svg11.dtd">
<svg version="1.1" id="Layer_1" xmlns="http://www.w3.org/2000/svg" xmlns:xlink="http://www.w3.org/1999/xlink" x="0px" y="0px"
	 width="140.484px" height="140.505px" viewBox="0 0 140.484 140.505" enable-background="new 0 0 140.484 140.505"
	 xml:space="preserve">
<g>
	<defs>
		<rect id="SVGID_1_" width="140.484" height="140.505"/>
	</defs>
	<clipPath id="SVGID_2_">
		<use xlink:href="#SVGID_1_"  overflow="visible"/>
	</clipPath>
	<path clip-path="url(#SVGID_2_)" fill="#018291" d="M117.245,31.201c-1.121-2.734-3.778-4.525-6.733-4.537H43.597V13.885
		c1.496-0.859,2.419-2.451,2.422-4.176V4.865c0-2.675-2.168-4.844-4.844-4.844H26.643c-2.675,0-4.844,2.169-4.844,4.844v4.844
		c0.005,1.723,0.928,3.313,2.422,4.171v14.635L0.253,76.451c-0.595,1.198-0.107,2.652,1.091,3.247
		c0.335,0.166,0.703,0.253,1.077,0.253h7.266v58.132c0,1.337,1.085,2.422,2.422,2.422h116.263c1.338,0,2.422-1.085,2.422-2.422
		V79.951h7.268c1.337,0.001,2.422-1.083,2.423-2.421c0-0.381-0.09-0.758-0.263-1.098L117.245,31.201z M29.064,14.554h9.689v12.111
		h-9.689V14.554z M26.643,4.865h14.533v4.844H26.643V4.865z M26.643,135.66v-14.532h2.422c1.338,0,2.423-1.085,2.423-2.423
		c0-1.337-1.085-2.422-2.423-2.422h-2.422v-9.688c0-5.351,4.338-9.688,9.689-9.688s9.688,4.338,9.688,9.688v29.065H26.643z
		 M125.95,135.66H50.864v-29.065c0-8.025-6.507-14.532-14.533-14.532c-8.026,0-14.533,6.507-14.533,14.532v29.065h-7.266V79.951
		H125.95V135.66z M128.372,75.107H6.34l16.955-33.91h3.347c1.338,0,2.422-1.084,2.422-2.422c0-1.338-1.084-2.422-2.422-2.422h-0.925
		l2.422-4.844h82.372c1.001,0.004,1.898,0.619,2.262,1.552c0.03,0.078,0.064,0.154,0.102,0.228l15.089,29.707h-4.436
		c-1.338,0-2.422,1.085-2.422,2.422c0,1.338,1.084,2.423,2.422,2.423h6.896l3.69,7.266H128.372z"/>
	<path clip-path="url(#SVGID_2_)" fill="#018291" d="M114.336,65.004c0.002-0.089-0.003-0.178-0.015-0.266l-7.848-26.644
		c-0.302-1.032-1.248-1.741-2.323-1.741H36.332c-1.075,0-2.02,0.708-2.323,1.739l-7.848,26.643
		c-0.011,0.088-0.016,0.177-0.014,0.267c-0.042,0.135-0.071,0.275-0.085,0.416c0.042,0.212,0.085,0.423,0.128,0.635
		c0.058,0.214,0.147,0.419,0.264,0.608c0.026,0.071,0.056,0.14,0.09,0.208c0.031,0.039,0.08,0.056,0.114,0.094
		c0.161,0.184,0.35,0.342,0.559,0.468c0.077,0.062,0.158,0.119,0.242,0.169c0.317,0.155,0.665,0.238,1.018,0.243h83.522
		c0.353-0.005,0.699-0.088,1.017-0.243c0.085-0.05,0.166-0.107,0.243-0.169c0.209-0.126,0.397-0.284,0.559-0.468
		c0.034-0.038,0.082-0.055,0.114-0.094c0.033-0.068,0.063-0.137,0.09-0.208c0.116-0.189,0.205-0.394,0.265-0.608
		c0.045-0.212,0.09-0.423,0.135-0.635C114.405,65.279,114.378,65.14,114.336,65.004 M104.478,48.463H90.771l-0.853-7.266h12.418
		L104.478,48.463z M67.819,53.308v9.689H52.884l1.136-9.689H67.819z M54.59,48.463l0.852-7.266h12.377v7.266H54.59z M72.664,53.308
		H86.47l1.136,9.689H72.664V53.308z M72.664,48.463v-7.266h12.377l0.852,7.266H72.664z M38.146,41.198h12.418l-0.853,7.266H36.005
		L38.146,41.198z M34.578,53.308h14.564l-1.136,9.689H31.729L34.578,53.308z M92.467,62.997l-1.136-9.689h14.563l2.858,9.689H92.467
		z"/>
	<path clip-path="url(#SVGID_2_)" fill="#018291" d="M99.307,109.017h2.739l-2.332,3.5c-0.743,1.113-0.442,2.617,0.671,3.359
		c1.113,0.743,2.617,0.443,3.359-0.67l4.845-7.267c0.742-1.113,0.442-2.617-0.671-3.359c-0.398-0.266-0.866-0.407-1.345-0.407
		h-2.739l2.332-3.5c0.743-1.112,0.442-2.617-0.67-3.359c-1.113-0.742-2.618-0.442-3.36,0.671l-4.844,7.267
		c-0.743,1.112-0.442,2.616,0.67,3.359C98.359,108.875,98.828,109.017,99.307,109.017"/>
	<path clip-path="url(#SVGID_2_)" fill="#018291" d="M65.397,123.551c3.068-0.014,5.798-1.952,6.821-4.846h5.29
		c2.675,0,4.844-2.169,4.844-4.844v-4.844h4.845v14.533c0,2.675,2.169,4.844,4.844,4.844h21.8c2.675,0,4.844-2.169,4.844-4.844
		v-33.91c0-2.676-2.169-4.846-4.844-4.846h-21.8c-2.675,0-4.844,2.17-4.844,4.846v14.532h-4.845c-2.675,0-4.844,2.169-4.844,4.845
		v4.844h-5.29c-1.345-3.774-5.494-5.744-9.268-4.399c-3.774,1.345-5.744,5.493-4.4,9.269
		C59.581,121.624,62.324,123.556,65.397,123.551 M92.04,89.641h21.799v33.91H92.04V89.641z M65.397,113.861
		c1.338,0,2.422,1.084,2.422,2.422s-1.084,2.422-2.422,2.422s-2.422-1.084-2.422-2.422S64.059,113.861,65.397,113.861"/>
	<path clip-path="url(#SVGID_2_)" fill="#018291" d="M113.33,24.243h20.396c3.729-0.004,6.751-3.024,6.758-6.753
		c0.053-4.408-2.732-8.35-6.906-9.771c-1.205-0.386-2.478-0.518-3.736-0.387c-1.982-4.89-6.981-7.858-12.223-7.255
		c-6.42,0.563-11.274,6.055-11.045,12.496v4.917C106.579,21.218,109.603,24.238,113.33,24.243 M111.418,12.572
		c-0.219-3.945,2.742-7.346,6.68-7.673c0.255-0.034,0.514-0.034,0.78-0.034c3.461-0.107,6.445,2.411,6.925,5.84
		c0.263,1.311,1.539,2.162,2.85,1.899c0.145-0.028,0.284-0.07,0.42-0.124c0.971-0.409,2.055-0.457,3.058-0.136
		c2.153,0.782,3.567,2.854,3.509,5.145c-0.001,1.056-0.857,1.912-1.913,1.913H113.33c-1.056-0.001-1.911-0.857-1.912-1.913V12.572z"
		/>
</g>
</svg>
