<svg xmlns="http://www.w3.org/2000/svg" viewBox="0 0 406.87 438.78"><defs><style>.cls-1{fill:#008291;}.cls-2{fill:#fddc49;}</style></defs><g id="Camada_2" data-name="Camada 2"><g id="Camada_1-2" data-name="Camada 1"><path class="cls-1" d="M375,375H315.13a12,12,0,1,1,0-23.93,36,36,0,0,0,35.9-35.9v-1c18.19-4.47,31.91-23.93,31.91-46.91v-16a8,8,0,0,0-8-8h-8V219.39a8,8,0,1,0-16,0v23.94h-16V219.39a8,8,0,1,0-15.95,0v23.94h-8a8,8,0,0,0-8,8v16c0,23.14,13.72,42.44,31.91,46.91v1a19.94,19.94,0,0,1-19.94,19.94,27.93,27.93,0,1,0,0,55.85H375a16,16,0,1,1,0,31.91H179.58a20.1,20.1,0,0,1-20-20V255.29a103.72,103.72,0,1,0-16,0V402.8a36,36,0,0,0,36,36H375A31.91,31.91,0,1,0,375,375Zm-55.84-107.7v-8H367v8c0,17.31-10.93,31.91-23.93,31.91S319.12,284.57,319.12,267.26ZM63.82,151.58a87.76,87.76,0,1,1,87.76,87.76A87.76,87.76,0,0,1,63.82,151.58Z"/><path class="cls-1" d="M263.27,151.58a8,8,0,0,0,8,8h23.93a8,8,0,1,0,0-16H271.25A8,8,0,0,0,263.27,151.58Z"/><path class="cls-1" d="M206.47,54.33a8,8,0,0,0,10.93-3l11.73-20.82a8,8,0,0,0-13.89-7.9l-11.8,20.9A8,8,0,0,0,206.47,54.33Z"/><path class="cls-1" d="M276.59,230.16a8,8,0,0,0,4-14.92l-20.9-11.8a8,8,0,0,0-7.89,13.92l.07,0,20.82,11.73A8,8,0,0,0,276.59,230.16Z"/><path class="cls-1" d="M218.28,251.3a8,8,0,0,0-13.89,8l12,20.66A8,8,0,0,0,231.31,276a7.89,7.89,0,0,0-1.07-4Z"/><path class="cls-1" d="M248.35,95.73a8,8,0,0,0,10.85,3l20.74-12a8,8,0,1,0-8-13.88l-20.75,12a8,8,0,0,0-2.88,10.9Z"/><path class="cls-1" d="M247.31,255.29A8,8,0,0,0,253,241.7l-.05,0-11.17-11.09a8,8,0,0,0-11.25,11.25l11.25,11.33A7.92,7.92,0,0,0,247.31,255.29Z"/><path class="cls-1" d="M230.56,72.6a8,8,0,0,0,11.25,0l11.33-11.25A8,8,0,0,0,241.81,50h0L230.56,61.35A8,8,0,0,0,230.56,72.6Z"/><path class="cls-1" d="M265.82,115a8,8,0,0,0,1.92,16h0a5.57,5.57,0,0,0,1.91,0l15.48-3.83a8,8,0,1,0-3.23-15.63q-.3.06-.6.15Z"/><path class="cls-1" d="M178.55,43.16a7.63,7.63,0,0,0,1.91,0,8,8,0,0,0,8-6.06l3.83-15.48a8,8,0,0,0-15.48-3.83L173,33.27a8,8,0,0,0,5.48,9.86Z"/><path class="cls-1" d="M178.55,260a8,8,0,0,0-5.83,9.65l3.83,15.48a8,8,0,0,0,8,6.06,7.63,7.63,0,0,0,1.91,0,8,8,0,0,0,5.83-9.65l-3.83-15.48a8,8,0,0,0-9.45-6.17Z"/><path class="cls-1" d="M291,186.2a8,8,0,0,0-5.82-9.65l-15.48-3.83a8,8,0,0,0-4.43,15.33q.3.09.6.15L281.3,192a8.8,8.8,0,0,0,1.92,0A8,8,0,0,0,291,186.2Z"/><path class="cls-1" d="M39.89,151.58a8,8,0,0,0-8-8H8a8,8,0,1,0,0,16H31.91A8,8,0,0,0,39.89,151.58Z"/><path class="cls-1" d="M85.76,51.3a8,8,0,1,0,14-7.82l-12-20.9a8,8,0,0,0-13.88,7.9Z"/><path class="cls-1" d="M54.33,206.47a8,8,0,0,0-10.85-3l-20.9,12a8,8,0,0,0,7.9,13.88L51.3,217.56a8,8,0,0,0,3.18-10.83Z"/><path class="cls-1" d="M95.73,248.35a8,8,0,0,0-10.9,2.91l0,0L72.84,272a8,8,0,1,0,13.88,8h0l12-20.66a8,8,0,0,0-2.91-10.9Z"/><path class="cls-1" d="M23.22,86.8,44,98.77a8,8,0,1,0,7.9-13.89l-20.75-12a8,8,0,1,0-8,13.88Z"/><path class="cls-1" d="M151.58,39.89a8,8,0,0,0,8-8V8a8,8,0,1,0-16,0V31.91A8,8,0,0,0,151.58,39.89Z"/><path class="cls-1" d="M72.6,230.56a8,8,0,0,0-11.25,0L50,241.81a8,8,0,0,0,0,11.28l0,0a8,8,0,0,0,11.28.05l.05-.05L72.6,241.81A8,8,0,0,0,72.6,230.56Z"/><path class="cls-1" d="M61.35,72.6A8,8,0,0,0,72.6,61.35L61.35,50A8,8,0,0,0,50,61.35Z"/><path class="cls-1" d="M18,126.61l15.48,3.83a5.11,5.11,0,0,0,1.91,0,8,8,0,1,0,1.92-16l-15.48-3.83A8,8,0,0,0,17.43,126q.3.09.6.15Z"/><path class="cls-1" d="M115,37.34a8.25,8.25,0,0,0,16.19-1.68,8.15,8.15,0,0,0-.23-2.15L127.09,18a8,8,0,1,0-15.63,3.23q.06.3.15.6Z"/><path class="cls-1" d="M124.61,260a8,8,0,0,0-9.65,5.82l-3.83,15.48A8,8,0,0,0,117,291a7.63,7.63,0,0,0,1.91,0,8,8,0,0,0,8-6.06l3.83-15.48A8,8,0,0,0,124.61,260Z"/><path class="cls-1" d="M21.86,192l15.48-3.83a8,8,0,0,0-3.83-15.48L18,176.55a8,8,0,1,0,3.23,15.63Z"/><path class="cls-2" d="M198.49,131.87a8,8,0,0,0-7-4.22H163.39l11.57-29a8,8,0,0,0-7.42-10.93H135.62a8,8,0,0,0-7.49,5.18l-23.94,63.83a8,8,0,0,0,7.5,10.77h30.48l-6.55,38.61a8,8,0,0,0,4.95,8.69,7.72,7.72,0,0,0,3,.56,8,8,0,0,0,6.62-3.59L198.09,140A8,8,0,0,0,198.49,131.87Zm-40.93,39.89,2-10.93a8,8,0,0,0-8-9.25h-28.4l17.95-47.87h14.6l-11.57,29a8,8,0,0,0,7.42,10.93h25Z"/></g></g></svg>