<?xml version="1.0" encoding="utf-8"?>
<!-- Generator: Adobe Illustrator 16.0.0, SVG Export Plug-In . SVG Version: 6.00 Build 0)  -->
<!DOCTYPE svg PUBLIC "-//W3C//DTD SVG 1.1//EN" "http://www.w3.org/Graphics/SVG/1.1/DTD/svg11.dtd">
<svg version="1.1" id="Capa_1" xmlns="http://www.w3.org/2000/svg" xmlns:xlink="http://www.w3.org/1999/xlink" x="0px" y="0px"
	 width="612px" height="621px" viewBox="0 85.5 612 621" enable-background="new 0 85.5 612 621" xml:space="preserve">
<g>
	<g>
		<path fill="#008291" d="M414.476,287.524C386.952,260,348.095,242.19,306,242.19c-42.096,0-80.953,17-108.477,45.333
			C170,315.048,152.191,353.905,152.191,396c0,42.096,17.81,80.952,45.333,108.477C225.047,532,263.905,549.81,306,549.81
			c42.095,0,80.952-17,108.476-45.333C442,476.952,459.809,438.096,459.809,396C459.809,353.905,442.809,315.048,414.476,287.524z
			 M385.333,475.333c-20.238,20.238-48.571,32.381-79.333,32.381s-59.096-12.143-79.334-32.381
			c-20.237-20.237-32.381-48.571-32.381-79.333s12.144-59.095,32.381-79.333c20.238-20.238,48.572-32.381,79.334-32.381
			s59.095,12.143,79.333,32.381c20.238,20.238,32.381,48.572,32.381,79.333S405.572,455.096,385.333,475.333z"/>
	</g>
</g>
<g>
	<g>
		<path fill="#008291" d="M590.952,374.953h-62.333c-11.334,0-21.048,9.714-21.048,21.047c0,11.334,9.714,21.048,21.048,21.048
			h62.333c11.333,0,21.048-9.714,21.048-21.048C612,384.667,602.285,374.953,590.952,374.953z"/>
	</g>
</g>
<g>
	<g>
		<path fill="#008291" d="M306,597.571c-11.334,0-21.048,9.715-21.048,21.048v62.333c0,11.334,9.714,21.048,21.048,21.048
			c11.333,0,21.047-9.714,21.047-21.048v-62.333C327.047,607.286,317.333,597.571,306,597.571z"/>
	</g>
</g>
<g>
	<g>
		<path fill="#008291" d="M522.143,583l-44.524-44.523c-7.285-8.096-21.047-8.096-29.143,0c-8.095,8.095-8.095,21.047,0,29.143
			L493,612.143c8.095,8.096,21.047,8.096,29.143,0C530.238,604.048,530.238,591.096,522.143,583z"/>
	</g>
</g>
<g>
	<g>
		<path fill="#008291" d="M306,90c-11.334,0-21.048,9.714-21.048,21.048v62.333c0,11.333,9.714,21.048,21.048,21.048
			c11.333,0,21.047-9.714,21.047-21.048v-62.333C327.047,99.714,317.333,90,306,90z"/>
	</g>
</g>
<g>
	<g>
		<path fill="#008291" d="M522.952,179.857c-8.096-8.096-21.048-8.096-29.144,0l-44.523,44.523c-8.095,8.095-8.095,21.048,0,29.143
			c7.286,8.095,21.048,8.095,29.143,0L522.952,209C531.047,200.905,531.047,187.952,522.952,179.857z"/>
	</g>
</g>
<g>
	<g>
		<path fill="#008291" d="M83.381,374.953H21.047C9.714,374.953,0,384.667,0,396c0,11.334,8.904,21.048,21.047,21.048h62.334
			c11.333,0,21.048-9.714,21.048-21.048C104.429,384.667,94.714,374.953,83.381,374.953z"/>
	</g>
</g>
<g>
	<g>
		<path fill="#008291" d="M162.714,538.477c-7.285-8.096-21.048-8.096-29.143,0L89.047,583c-8.095,8.096-8.095,21.048,0,29.143
			c8.096,8.096,21.048,8.096,29.144,0l44.523-44.523C170.81,559.523,170.81,546.571,162.714,538.477z"/>
	</g>
</g>
<g>
	<g>
		<path fill="#008291" d="M162.714,224.381l-44.523-44.523c-8.096-8.096-21.048-8.096-29.144,0c-8.095,8.095-8.095,21.047,0,29.143
			l44.524,44.524c8.095,8.095,21.048,8.095,29.143,0C170.81,245.429,170.81,232.476,162.714,224.381z"/>
	</g>
</g>
</svg>
