<svg xmlns="http://www.w3.org/2000/svg" viewBox="0 0 238.1 98.6"><defs><style>.cls-1{fill:#fff;}.cls-2{fill:#fcdb49;}</style></defs><g id="Camada_2" data-name="Camada 2"><g id="Frente"><path class="cls-1" d="M32.1,40.5c3.1,0,5.6,1.6,7.5,4.9a8.1,8.1,0,0,1,.8,3.4v.4H36.1c-.2,0-.4-.6-.5-1.6s-2.4-2.6-5-2.6H10.8C8,45,6.3,46,5.7,48.1l-.2,1a4,4,0,0,0,3,4,6.2,6.2,0,0,0,2,.2H31.8c3.6,0,6.2,1.8,8.1,5.6a10.8,10.8,0,0,1,.5,2.5v1a8.1,8.1,0,0,1-2.8,6,9,9,0,0,1-6.7,2.4H10.3c-4.4,0-7.3-2-8.9-5.9a12.4,12.4,0,0,1-.5-3.1c.1-.7.2-1.1.3-1.1H5.8A4.9,4.9,0,0,0,5.5,62a4,4,0,0,0,2.7,3.9,4.9,4.9,0,0,0,2,.3H31.3a4.1,4.1,0,0,0,4.3-3l.3-1.2A3.9,3.9,0,0,0,33,58.2a1.1,1.1,0,0,0-.8-.3h-21c-4.2,0-7-1.2-8.6-3.7A8.5,8.5,0,0,1,.9,49c0-3.1,1.6-5.6,4.8-7.6a8.3,8.3,0,0,1,3.6-.9Z"/><path class="cls-1" d="M74.5,40.5c3.4,0,6.1,1.7,8.2,5.3a8.6,8.6,0,0,1,1.1,4v.6c0,3.6-2,6.5-5.8,8.7a16.9,16.9,0,0,1-5.9.8H48.9V70.7l-.2.2H44.5c-.2,0-.2-.1-.2-.2v-30c0-.2.1-.2.2-.2ZM48.9,55.3H73.5c3.3,0,5.1-1.6,5.6-4.8v-.8c-.5-3.1-2.4-4.7-5.7-4.7H48.9Z"/><path class="cls-1" d="M108.2,40.5c5.1,0,8.9,1.1,11.3,3.5s3.6,3.5,4.1,5.2h-4.7a12.9,12.9,0,0,0-5-3.8,16,16,0,0,0-5.5-.7h-4c-4.1,0-7.1,1-9.1,2.9s-2.8,3.5-3,5a4.3,4.3,0,0,0-.3,1h26.9a.2.2,0,0,1,.2.2v3.8c0,.2-.1.2-.2.2H92q.1,2.4,3.3,6a12.6,12.6,0,0,0,8.4,2.9h4.7c4.1,0,7.2-1,9-3,.1,0,.5-.3,1.1-1h4.9c-1.6,3.4-4.8,5.9-9.4,7.6a31.3,31.3,0,0,1-5.8.5h-3.6c-5.1,0-8.9-1.2-11.3-3.5a15.1,15.1,0,0,1-5.7-11.1V55.1q0-6.5,6-11.4c2.5-2.2,6.1-3.2,11-3.2Z"/><path class="cls-1" d="M148.1,40.5c5.1,0,8.8,1.1,11.3,3.5a12.3,12.3,0,0,1,4.1,5.2h-4.7a12.5,12.5,0,0,0-5.1-3.8,15,15,0,0,0-5.4-.7h-4c-4.2,0-7.2,1-9.1,2.9s-2.8,3.5-3.1,5-.2.9-.2,1h26.9a.2.2,0,0,1,.2.2v3.8c0,.2-.1.2-.2.2H131.9q.2,2.4,3.3,6a12.3,12.3,0,0,0,8.3,2.9h4.8q6.1,0,9-3l1.1-1h4.9c-1.6,3.4-4.8,5.9-9.5,7.6a30.1,30.1,0,0,1-5.7.5h-3.7c-5,0-8.8-1.2-11.3-3.5a15,15,0,0,1-4.4-5.9,14.2,14.2,0,0,1-1.2-5.2V55.1q0-6.5,6-11.4c2.4-2.2,6.1-3.2,10.9-3.2Z"/><path class="cls-1" d="M171.8,40.5c.2,0,.2,0,.2.2V56c0,3.6,1.9,6.6,5.6,8.9a10.1,10.1,0,0,0,5,1.3h23.1c.2,0,.2.1.2.2v4.2c0,.1,0,.2-.2.2h-22c-7.4,0-12.6-3.3-15.4-10a15.4,15.4,0,0,1-.9-4.8V40.7c0-.2.1-.2.2-.2Z"/><path class="cls-2" d="M11.4,94.8a3.6,3.6,0,0,1-3.8,3.7H3.7A3.5,3.5,0,0,1,0,95v-.5H1.5v.7a1.9,1.9,0,0,0,2,1.9H7.8a2.1,2.1,0,0,0,2.1-2.3V92.9A2,2,0,0,0,8,90.8l-4.3-.5A3.7,3.7,0,0,1,.1,86.7V85a3.6,3.6,0,0,1,3.7-3.7H7.5a3.4,3.4,0,0,1,3.6,3.5v.7H9.6v-.9a1.9,1.9,0,0,0-1.9-1.9H3.6a2.1,2.1,0,0,0-2,2.3v1.9a2,2,0,0,0,1.8,2l4.4.4A3.8,3.8,0,0,1,11.4,93Z"/><path class="cls-2" d="M27.6,94.5a4.1,4.1,0,0,1-4.1,4.1H19.6a4.1,4.1,0,0,1-4.1-4.1V85.3a4,4,0,0,1,4-4h4.1a3.9,3.9,0,0,1,4,4Zm-1.5-9.3a2.4,2.4,0,0,0-2.3-2.5H19.3a2.4,2.4,0,0,0-2.4,2.5v9.5a2.5,2.5,0,0,0,2.5,2.4h4.3a2.4,2.4,0,0,0,2.4-2.4Z"/><path class="cls-2" d="M41.7,98.4H32.4v-17H34V96.9h7.7Z"/><path class="cls-2" d="M57.2,98.4H55.7V92.6H47v5.8H45.5V88.1A3.9,3.9,0,0,1,46.7,85l3.6-3.7h2L56,85a3.9,3.9,0,0,1,1.2,3.1ZM55.7,88.2a2.8,2.8,0,0,0-.9-2.3l-3.1-3.2H51l-3.1,3.3a2.8,2.8,0,0,0-.9,2.3v3.1h8.7Z"/><path class="cls-2" d="M73.2,98.4H71.7V93.2a2.4,2.4,0,0,0-2.6-2.5H63.5v7.7H62V81.3h7.4a3.7,3.7,0,0,1,3.8,3.9v1.6c0,1.7-.7,2.9-2.3,3.3a2.9,2.9,0,0,1,2.3,3.1ZM71.8,85a2.1,2.1,0,0,0-2.2-2.3H63.5v6.6h6.1A2.1,2.1,0,0,0,71.8,87Z"/><rect class="cls-2" x="210.6" width="5.3" height="7.42"/><rect class="cls-2" x="210.6" y="42.3" width="5.3" height="7.42"/><rect class="cls-2" x="231.8" y="21.1" width="5.3" height="7.42" transform="translate(259.3 -209.6) rotate(90)"/><rect class="cls-2" x="189.5" y="21.1" width="5.3" height="7.42" transform="translate(217 -167.3) rotate(90)"/><rect class="cls-2" x="222.4" y="5.2" width="5.3" height="16.02" transform="translate(75.3 -155.3) rotate(45)"/><rect class="cls-2" x="198.7" y="5.2" width="5.3" height="16.02" transform="translate(353 -119.8) rotate(135)"/><polygon class="cls-1" points="213.4 21.2 193.6 40.9 197.4 44.7 213.4 28.6 229.5 44.7 233.2 40.9 213.4 21.2"/></g></g></svg>